<mxfile host="Electron" modified="2023-10-24T13:05:38.595Z" agent="Mozilla/5.0 (Macintosh; Intel Mac OS X 10_15_7) AppleWebKit/537.36 (KHTML, like Gecko) draw.io/22.0.3 Chrome/114.0.5735.289 Electron/25.8.4 Safari/537.36" etag="xUyux-3L2b9K1kb_7ww8" version="22.0.3" type="device">
  <diagram name="StrÃ¡nka-1" id="vB9m2OO1LP8aE2tn413O">
    <mxGraphModel dx="1060" dy="808" grid="1" gridSize="10" guides="1" tooltips="1" connect="1" arrows="1" fold="1" page="1" pageScale="1" pageWidth="827" pageHeight="1169" math="0" shadow="0">
      <root>
        <mxCell id="0" />
        <mxCell id="1" parent="0" />
        <mxCell id="5gaXhT0dP0O7waDTbMos-6" value="" style="edgeStyle=orthogonalEdgeStyle;rounded=0;orthogonalLoop=1;jettySize=auto;html=1;" parent="1" source="5gaXhT0dP0O7waDTbMos-4" target="5gaXhT0dP0O7waDTbMos-5" edge="1">
          <mxGeometry relative="1" as="geometry" />
        </mxCell>
        <mxCell id="5gaXhT0dP0O7waDTbMos-89" style="edgeStyle=orthogonalEdgeStyle;rounded=0;orthogonalLoop=1;jettySize=auto;html=1;exitX=0.5;exitY=1;exitDx=0;exitDy=0;entryX=0.5;entryY=0;entryDx=0;entryDy=0;" parent="1" source="5gaXhT0dP0O7waDTbMos-4" target="5gaXhT0dP0O7waDTbMos-88" edge="1">
          <mxGeometry relative="1" as="geometry">
            <Array as="points">
              <mxPoint x="465" y="130" />
            </Array>
          </mxGeometry>
        </mxCell>
        <mxCell id="5gaXhT0dP0O7waDTbMos-108" style="edgeStyle=orthogonalEdgeStyle;rounded=0;orthogonalLoop=1;jettySize=auto;html=1;exitX=0.5;exitY=1;exitDx=0;exitDy=0;entryX=0.5;entryY=0;entryDx=0;entryDy=0;" parent="1" source="5gaXhT0dP0O7waDTbMos-4" target="5gaXhT0dP0O7waDTbMos-103" edge="1">
          <mxGeometry relative="1" as="geometry">
            <Array as="points">
              <mxPoint x="705" y="130" />
            </Array>
          </mxGeometry>
        </mxCell>
        <mxCell id="5gaXhT0dP0O7waDTbMos-4" value="Prog" style="ellipse;whiteSpace=wrap;html=1;aspect=fixed;" parent="1" vertex="1">
          <mxGeometry x="195" y="80" width="50" height="50" as="geometry" />
        </mxCell>
        <mxCell id="5gaXhT0dP0O7waDTbMos-13" style="edgeStyle=orthogonalEdgeStyle;rounded=0;orthogonalLoop=1;jettySize=auto;html=1;exitX=0;exitY=1;exitDx=0;exitDy=0;entryX=0.5;entryY=0;entryDx=0;entryDy=0;" parent="1" source="5gaXhT0dP0O7waDTbMos-5" target="5gaXhT0dP0O7waDTbMos-10" edge="1">
          <mxGeometry relative="1" as="geometry" />
        </mxCell>
        <mxCell id="5gaXhT0dP0O7waDTbMos-14" style="edgeStyle=orthogonalEdgeStyle;rounded=0;orthogonalLoop=1;jettySize=auto;html=1;exitX=0;exitY=0.5;exitDx=0;exitDy=0;entryX=0.5;entryY=0;entryDx=0;entryDy=0;" parent="1" source="5gaXhT0dP0O7waDTbMos-5" target="5gaXhT0dP0O7waDTbMos-9" edge="1">
          <mxGeometry relative="1" as="geometry" />
        </mxCell>
        <mxCell id="5gaXhT0dP0O7waDTbMos-15" style="edgeStyle=orthogonalEdgeStyle;rounded=0;orthogonalLoop=1;jettySize=auto;html=1;exitX=1;exitY=1;exitDx=0;exitDy=0;entryX=0.5;entryY=0;entryDx=0;entryDy=0;" parent="1" source="5gaXhT0dP0O7waDTbMos-5" target="5gaXhT0dP0O7waDTbMos-11" edge="1">
          <mxGeometry relative="1" as="geometry" />
        </mxCell>
        <mxCell id="5gaXhT0dP0O7waDTbMos-16" style="edgeStyle=orthogonalEdgeStyle;rounded=0;orthogonalLoop=1;jettySize=auto;html=1;exitX=1;exitY=0.5;exitDx=0;exitDy=0;entryX=0.5;entryY=0;entryDx=0;entryDy=0;" parent="1" source="5gaXhT0dP0O7waDTbMos-5" target="5gaXhT0dP0O7waDTbMos-12" edge="1">
          <mxGeometry relative="1" as="geometry" />
        </mxCell>
        <mxCell id="5gaXhT0dP0O7waDTbMos-5" value="decl" style="ellipse;whiteSpace=wrap;html=1;" parent="1" vertex="1">
          <mxGeometry x="195" y="150" width="50" height="50" as="geometry" />
        </mxCell>
        <mxCell id="5gaXhT0dP0O7waDTbMos-9" value="int" style="ellipse;whiteSpace=wrap;html=1;aspect=fixed;" parent="1" vertex="1">
          <mxGeometry x="110" y="210" width="50" height="50" as="geometry" />
        </mxCell>
        <mxCell id="5gaXhT0dP0O7waDTbMos-10" value="a" style="ellipse;whiteSpace=wrap;html=1;aspect=fixed;" parent="1" vertex="1">
          <mxGeometry x="170" y="210" width="50" height="50" as="geometry" />
        </mxCell>
        <mxCell id="5gaXhT0dP0O7waDTbMos-11" value="=" style="ellipse;whiteSpace=wrap;html=1;aspect=fixed;" parent="1" vertex="1">
          <mxGeometry x="230" y="210" width="50" height="50" as="geometry" />
        </mxCell>
        <mxCell id="5gaXhT0dP0O7waDTbMos-32" style="edgeStyle=orthogonalEdgeStyle;rounded=0;orthogonalLoop=1;jettySize=auto;html=1;exitX=0;exitY=1;exitDx=0;exitDy=0;entryX=0.5;entryY=0;entryDx=0;entryDy=0;" parent="1" source="5gaXhT0dP0O7waDTbMos-12" target="5gaXhT0dP0O7waDTbMos-17" edge="1">
          <mxGeometry relative="1" as="geometry" />
        </mxCell>
        <mxCell id="5gaXhT0dP0O7waDTbMos-33" style="edgeStyle=orthogonalEdgeStyle;rounded=0;orthogonalLoop=1;jettySize=auto;html=1;exitX=1;exitY=1;exitDx=0;exitDy=0;entryX=0.5;entryY=0;entryDx=0;entryDy=0;" parent="1" source="5gaXhT0dP0O7waDTbMos-12" target="5gaXhT0dP0O7waDTbMos-21" edge="1">
          <mxGeometry relative="1" as="geometry" />
        </mxCell>
        <mxCell id="5gaXhT0dP0O7waDTbMos-12" value="+" style="ellipse;whiteSpace=wrap;html=1;aspect=fixed;" parent="1" vertex="1">
          <mxGeometry x="290" y="210" width="50" height="50" as="geometry" />
        </mxCell>
        <mxCell id="5gaXhT0dP0O7waDTbMos-17" value="1" style="ellipse;whiteSpace=wrap;html=1;aspect=fixed;" parent="1" vertex="1">
          <mxGeometry x="260" y="280" width="50" height="50" as="geometry" />
        </mxCell>
        <mxCell id="5gaXhT0dP0O7waDTbMos-34" style="edgeStyle=orthogonalEdgeStyle;rounded=0;orthogonalLoop=1;jettySize=auto;html=1;exitX=0;exitY=1;exitDx=0;exitDy=0;entryX=0.5;entryY=0;entryDx=0;entryDy=0;" parent="1" source="5gaXhT0dP0O7waDTbMos-21" target="5gaXhT0dP0O7waDTbMos-23" edge="1">
          <mxGeometry relative="1" as="geometry" />
        </mxCell>
        <mxCell id="5gaXhT0dP0O7waDTbMos-48" style="edgeStyle=orthogonalEdgeStyle;rounded=0;orthogonalLoop=1;jettySize=auto;html=1;exitX=1;exitY=1;exitDx=0;exitDy=0;entryX=0.5;entryY=0;entryDx=0;entryDy=0;" parent="1" source="5gaXhT0dP0O7waDTbMos-21" target="5gaXhT0dP0O7waDTbMos-25" edge="1">
          <mxGeometry relative="1" as="geometry" />
        </mxCell>
        <mxCell id="5gaXhT0dP0O7waDTbMos-21" value="*" style="ellipse;whiteSpace=wrap;html=1;aspect=fixed;" parent="1" vertex="1">
          <mxGeometry x="320" y="280" width="50" height="50" as="geometry" />
        </mxCell>
        <mxCell id="5gaXhT0dP0O7waDTbMos-23" value="2" style="ellipse;whiteSpace=wrap;html=1;aspect=fixed;" parent="1" vertex="1">
          <mxGeometry x="290" y="350" width="50" height="50" as="geometry" />
        </mxCell>
        <mxCell id="5gaXhT0dP0O7waDTbMos-25" value="3" style="ellipse;whiteSpace=wrap;html=1;aspect=fixed;" parent="1" vertex="1">
          <mxGeometry x="350" y="350" width="50" height="50" as="geometry" />
        </mxCell>
        <mxCell id="5gaXhT0dP0O7waDTbMos-27" value="Evals form bottom" style="text;html=1;strokeColor=none;fillColor=none;align=center;verticalAlign=middle;whiteSpace=wrap;rounded=0;" parent="1" vertex="1">
          <mxGeometry x="145" y="40" width="150" height="30" as="geometry" />
        </mxCell>
        <mxCell id="5gaXhT0dP0O7waDTbMos-79" value="Runner" style="text;html=1;strokeColor=none;fillColor=none;align=center;verticalAlign=middle;whiteSpace=wrap;rounded=0;" parent="1" vertex="1">
          <mxGeometry x="135" y="500" width="60" height="30" as="geometry" />
        </mxCell>
        <mxCell id="5gaXhT0dP0O7waDTbMos-80" value="" style="shape=flexArrow;endArrow=classic;html=1;rounded=0;" parent="1" edge="1">
          <mxGeometry width="50" height="50" relative="1" as="geometry">
            <mxPoint x="245" y="589.7" as="sourcePoint" />
            <mxPoint x="180" y="589.99" as="targetPoint" />
            <Array as="points" />
          </mxGeometry>
        </mxCell>
        <mxCell id="5gaXhT0dP0O7waDTbMos-81" value="Stack base" style="rounded=0;whiteSpace=wrap;html=1;" parent="1" vertex="1">
          <mxGeometry x="50" y="720" width="120" height="30" as="geometry" />
        </mxCell>
        <mxCell id="5gaXhT0dP0O7waDTbMos-82" style="edgeStyle=orthogonalEdgeStyle;rounded=0;orthogonalLoop=1;jettySize=auto;html=1;exitX=0.5;exitY=1;exitDx=0;exitDy=0;" parent="1" source="5gaXhT0dP0O7waDTbMos-81" target="5gaXhT0dP0O7waDTbMos-81" edge="1">
          <mxGeometry relative="1" as="geometry" />
        </mxCell>
        <mxCell id="5gaXhT0dP0O7waDTbMos-83" value="7" style="rounded=1;whiteSpace=wrap;html=1;" parent="1" vertex="1">
          <mxGeometry x="50" y="670" width="120" height="40" as="geometry" />
        </mxCell>
        <mxCell id="5gaXhT0dP0O7waDTbMos-84" value="Vars" style="swimlane;whiteSpace=wrap;html=1;startSize=20;" parent="1" vertex="1">
          <mxGeometry x="320" y="530" width="120" height="200" as="geometry">
            <mxRectangle x="320" y="530" width="70" height="30" as="alternateBounds" />
          </mxGeometry>
        </mxCell>
        <mxCell id="5gaXhT0dP0O7waDTbMos-85" value="a: 0" style="rounded=0;whiteSpace=wrap;html=1;" parent="5gaXhT0dP0O7waDTbMos-84" vertex="1">
          <mxGeometry y="20" width="120" height="25" as="geometry" />
        </mxCell>
        <mxCell id="5gaXhT0dP0O7waDTbMos-86" value="b: 1" style="rounded=0;whiteSpace=wrap;html=1;" parent="5gaXhT0dP0O7waDTbMos-84" vertex="1">
          <mxGeometry y="45" width="120" height="25" as="geometry" />
        </mxCell>
        <mxCell id="5gaXhT0dP0O7waDTbMos-118" value="c: 10" style="rounded=0;whiteSpace=wrap;html=1;" parent="5gaXhT0dP0O7waDTbMos-84" vertex="1">
          <mxGeometry y="70" width="120" height="25" as="geometry" />
        </mxCell>
        <mxCell id="5gaXhT0dP0O7waDTbMos-87" value="3" style="rounded=1;whiteSpace=wrap;html=1;" parent="1" vertex="1">
          <mxGeometry x="50" y="620" width="120" height="40" as="geometry" />
        </mxCell>
        <mxCell id="5gaXhT0dP0O7waDTbMos-95" style="edgeStyle=orthogonalEdgeStyle;rounded=0;orthogonalLoop=1;jettySize=auto;html=1;exitX=0;exitY=0.5;exitDx=0;exitDy=0;entryX=0.5;entryY=0;entryDx=0;entryDy=0;" parent="1" source="5gaXhT0dP0O7waDTbMos-88" target="5gaXhT0dP0O7waDTbMos-90" edge="1">
          <mxGeometry relative="1" as="geometry" />
        </mxCell>
        <mxCell id="5gaXhT0dP0O7waDTbMos-96" style="edgeStyle=orthogonalEdgeStyle;rounded=0;orthogonalLoop=1;jettySize=auto;html=1;exitX=0;exitY=1;exitDx=0;exitDy=0;entryX=0.5;entryY=0;entryDx=0;entryDy=0;" parent="1" source="5gaXhT0dP0O7waDTbMos-88" target="5gaXhT0dP0O7waDTbMos-91" edge="1">
          <mxGeometry relative="1" as="geometry" />
        </mxCell>
        <mxCell id="5gaXhT0dP0O7waDTbMos-97" style="edgeStyle=orthogonalEdgeStyle;rounded=0;orthogonalLoop=1;jettySize=auto;html=1;exitX=1;exitY=1;exitDx=0;exitDy=0;entryX=0.5;entryY=0;entryDx=0;entryDy=0;" parent="1" source="5gaXhT0dP0O7waDTbMos-88" target="5gaXhT0dP0O7waDTbMos-92" edge="1">
          <mxGeometry relative="1" as="geometry" />
        </mxCell>
        <mxCell id="5gaXhT0dP0O7waDTbMos-98" style="edgeStyle=orthogonalEdgeStyle;rounded=0;orthogonalLoop=1;jettySize=auto;html=1;exitX=1;exitY=0.5;exitDx=0;exitDy=0;entryX=0.5;entryY=0;entryDx=0;entryDy=0;" parent="1" source="5gaXhT0dP0O7waDTbMos-88" target="5gaXhT0dP0O7waDTbMos-93" edge="1">
          <mxGeometry relative="1" as="geometry" />
        </mxCell>
        <mxCell id="5gaXhT0dP0O7waDTbMos-88" value="decl" style="ellipse;whiteSpace=wrap;html=1;aspect=fixed;" parent="1" vertex="1">
          <mxGeometry x="440" y="150" width="50" height="50" as="geometry" />
        </mxCell>
        <mxCell id="5gaXhT0dP0O7waDTbMos-90" value="int" style="ellipse;whiteSpace=wrap;html=1;aspect=fixed;" parent="1" vertex="1">
          <mxGeometry x="350" y="210" width="50" height="50" as="geometry" />
        </mxCell>
        <mxCell id="5gaXhT0dP0O7waDTbMos-91" value="b" style="ellipse;whiteSpace=wrap;html=1;aspect=fixed;" parent="1" vertex="1">
          <mxGeometry x="410" y="210" width="50" height="50" as="geometry" />
        </mxCell>
        <mxCell id="5gaXhT0dP0O7waDTbMos-92" value="=" style="ellipse;whiteSpace=wrap;html=1;aspect=fixed;" parent="1" vertex="1">
          <mxGeometry x="470" y="210" width="50" height="50" as="geometry" />
        </mxCell>
        <mxCell id="5gaXhT0dP0O7waDTbMos-93" value="3" style="ellipse;whiteSpace=wrap;html=1;aspect=fixed;" parent="1" vertex="1">
          <mxGeometry x="530" y="210" width="50" height="50" as="geometry" />
        </mxCell>
        <mxCell id="5gaXhT0dP0O7waDTbMos-99" style="edgeStyle=orthogonalEdgeStyle;rounded=0;orthogonalLoop=1;jettySize=auto;html=1;exitX=0;exitY=0.5;exitDx=0;exitDy=0;entryX=0.5;entryY=0;entryDx=0;entryDy=0;" parent="1" source="5gaXhT0dP0O7waDTbMos-103" target="5gaXhT0dP0O7waDTbMos-104" edge="1">
          <mxGeometry relative="1" as="geometry" />
        </mxCell>
        <mxCell id="5gaXhT0dP0O7waDTbMos-100" style="edgeStyle=orthogonalEdgeStyle;rounded=0;orthogonalLoop=1;jettySize=auto;html=1;exitX=0;exitY=1;exitDx=0;exitDy=0;entryX=0.5;entryY=0;entryDx=0;entryDy=0;" parent="1" source="5gaXhT0dP0O7waDTbMos-103" target="5gaXhT0dP0O7waDTbMos-105" edge="1">
          <mxGeometry relative="1" as="geometry" />
        </mxCell>
        <mxCell id="5gaXhT0dP0O7waDTbMos-101" style="edgeStyle=orthogonalEdgeStyle;rounded=0;orthogonalLoop=1;jettySize=auto;html=1;exitX=1;exitY=1;exitDx=0;exitDy=0;entryX=0.5;entryY=0;entryDx=0;entryDy=0;" parent="1" source="5gaXhT0dP0O7waDTbMos-103" target="5gaXhT0dP0O7waDTbMos-106" edge="1">
          <mxGeometry relative="1" as="geometry" />
        </mxCell>
        <mxCell id="5gaXhT0dP0O7waDTbMos-102" style="edgeStyle=orthogonalEdgeStyle;rounded=0;orthogonalLoop=1;jettySize=auto;html=1;exitX=1;exitY=0.5;exitDx=0;exitDy=0;entryX=0.5;entryY=0;entryDx=0;entryDy=0;" parent="1" source="5gaXhT0dP0O7waDTbMos-103" target="5gaXhT0dP0O7waDTbMos-107" edge="1">
          <mxGeometry relative="1" as="geometry" />
        </mxCell>
        <mxCell id="5gaXhT0dP0O7waDTbMos-103" value="decl" style="ellipse;whiteSpace=wrap;html=1;aspect=fixed;" parent="1" vertex="1">
          <mxGeometry x="680" y="150" width="50" height="50" as="geometry" />
        </mxCell>
        <mxCell id="5gaXhT0dP0O7waDTbMos-104" value="int" style="ellipse;whiteSpace=wrap;html=1;aspect=fixed;" parent="1" vertex="1">
          <mxGeometry x="590" y="210" width="50" height="50" as="geometry" />
        </mxCell>
        <mxCell id="5gaXhT0dP0O7waDTbMos-105" value="c" style="ellipse;whiteSpace=wrap;html=1;aspect=fixed;" parent="1" vertex="1">
          <mxGeometry x="650" y="210" width="50" height="50" as="geometry" />
        </mxCell>
        <mxCell id="5gaXhT0dP0O7waDTbMos-106" value="=" style="ellipse;whiteSpace=wrap;html=1;aspect=fixed;" parent="1" vertex="1">
          <mxGeometry x="710" y="210" width="50" height="50" as="geometry" />
        </mxCell>
        <mxCell id="dNYOuxd4xxc7bEwNWjKP-12" style="edgeStyle=orthogonalEdgeStyle;rounded=0;orthogonalLoop=1;jettySize=auto;html=1;exitX=0;exitY=1;exitDx=0;exitDy=0;entryX=0.5;entryY=0;entryDx=0;entryDy=0;" edge="1" parent="1" source="5gaXhT0dP0O7waDTbMos-107" target="5gaXhT0dP0O7waDTbMos-109">
          <mxGeometry relative="1" as="geometry" />
        </mxCell>
        <mxCell id="dNYOuxd4xxc7bEwNWjKP-13" style="edgeStyle=orthogonalEdgeStyle;rounded=0;orthogonalLoop=1;jettySize=auto;html=1;exitX=1;exitY=1;exitDx=0;exitDy=0;entryX=0.5;entryY=0;entryDx=0;entryDy=0;" edge="1" parent="1" source="5gaXhT0dP0O7waDTbMos-107" target="5gaXhT0dP0O7waDTbMos-110">
          <mxGeometry relative="1" as="geometry" />
        </mxCell>
        <mxCell id="5gaXhT0dP0O7waDTbMos-107" value="+" style="ellipse;whiteSpace=wrap;html=1;aspect=fixed;" parent="1" vertex="1">
          <mxGeometry x="770" y="210" width="50" height="50" as="geometry" />
        </mxCell>
        <mxCell id="5gaXhT0dP0O7waDTbMos-109" value="a" style="ellipse;whiteSpace=wrap;html=1;aspect=fixed;" parent="1" vertex="1">
          <mxGeometry x="740" y="270" width="50" height="50" as="geometry" />
        </mxCell>
        <mxCell id="5gaXhT0dP0O7waDTbMos-110" value="b" style="ellipse;whiteSpace=wrap;html=1;aspect=fixed;" parent="1" vertex="1">
          <mxGeometry x="800" y="270" width="50" height="50" as="geometry" />
        </mxCell>
        <mxCell id="5gaXhT0dP0O7waDTbMos-113" value="10" style="rounded=1;whiteSpace=wrap;html=1;" parent="1" vertex="1">
          <mxGeometry x="175" y="780" width="120" height="40" as="geometry" />
        </mxCell>
        <mxCell id="5gaXhT0dP0O7waDTbMos-114" value="RAX" style="shape=process;whiteSpace=wrap;html=1;backgroundOutline=1;" parent="1" vertex="1">
          <mxGeometry x="40" y="770" width="120" height="60" as="geometry" />
        </mxCell>
        <mxCell id="5gaXhT0dP0O7waDTbMos-115" value="RBX" style="shape=process;whiteSpace=wrap;html=1;backgroundOutline=1;" parent="1" vertex="1">
          <mxGeometry x="40" y="840" width="120" height="60" as="geometry" />
        </mxCell>
        <mxCell id="5gaXhT0dP0O7waDTbMos-116" value="3" style="rounded=1;whiteSpace=wrap;html=1;" parent="1" vertex="1">
          <mxGeometry x="175" y="850" width="120" height="40" as="geometry" />
        </mxCell>
        <mxCell id="5gaXhT0dP0O7waDTbMos-117" value="10" style="rounded=1;whiteSpace=wrap;html=1;" parent="1" vertex="1">
          <mxGeometry x="50" y="570" width="120" height="40" as="geometry" />
        </mxCell>
        <mxCell id="dNYOuxd4xxc7bEwNWjKP-14" value="7" style="rounded=1;whiteSpace=wrap;html=1;" vertex="1" parent="1">
          <mxGeometry x="660" y="440" width="120" height="60" as="geometry" />
        </mxCell>
        <mxCell id="dNYOuxd4xxc7bEwNWjKP-15" value="6" style="rounded=1;whiteSpace=wrap;html=1;" vertex="1" parent="1">
          <mxGeometry x="660" y="510" width="120" height="60" as="geometry" />
        </mxCell>
        <mxCell id="dNYOuxd4xxc7bEwNWjKP-16" value="5" style="rounded=1;whiteSpace=wrap;html=1;" vertex="1" parent="1">
          <mxGeometry x="660" y="580" width="120" height="60" as="geometry" />
        </mxCell>
        <mxCell id="dNYOuxd4xxc7bEwNWjKP-17" value="4" style="rounded=1;whiteSpace=wrap;html=1;" vertex="1" parent="1">
          <mxGeometry x="660" y="650" width="120" height="60" as="geometry" />
        </mxCell>
        <mxCell id="dNYOuxd4xxc7bEwNWjKP-18" value="3: x" style="rounded=1;whiteSpace=wrap;html=1;" vertex="1" parent="1">
          <mxGeometry x="660" y="720" width="120" height="60" as="geometry" />
        </mxCell>
        <mxCell id="dNYOuxd4xxc7bEwNWjKP-19" value="2" style="rounded=1;whiteSpace=wrap;html=1;" vertex="1" parent="1">
          <mxGeometry x="660" y="790" width="120" height="60" as="geometry" />
        </mxCell>
        <mxCell id="dNYOuxd4xxc7bEwNWjKP-20" value="1" style="rounded=1;whiteSpace=wrap;html=1;" vertex="1" parent="1">
          <mxGeometry x="660" y="860" width="120" height="60" as="geometry" />
        </mxCell>
        <mxCell id="dNYOuxd4xxc7bEwNWjKP-21" value="0" style="rounded=1;whiteSpace=wrap;html=1;" vertex="1" parent="1">
          <mxGeometry x="660" y="930" width="120" height="60" as="geometry" />
        </mxCell>
        <mxCell id="dNYOuxd4xxc7bEwNWjKP-22" value="" style="shape=flexArrow;endArrow=classic;html=1;rounded=0;" edge="1" parent="1">
          <mxGeometry width="50" height="50" relative="1" as="geometry">
            <mxPoint x="860" y="440.00000000000006" as="sourcePoint" />
            <mxPoint x="800" y="440.00000000000006" as="targetPoint" />
            <Array as="points">
              <mxPoint x="825" y="440.31" />
            </Array>
          </mxGeometry>
        </mxCell>
      </root>
    </mxGraphModel>
  </diagram>
</mxfile>
